<?xml version="1.0"?>
<svg xmlns="http://www.w3.org/2000/svg" height="512px" viewBox="-111 0 442 442.55237" width="512px"><g><path d="m118.789062 352h32v16h-32zm0 0" data-original="#000000" class="active-path" data-old_color="#000000" fill="#002C43"/><path d="m118.789062 240h32v16h-32zm0 0" data-original="#000000" class="active-path" data-old_color="#000000" fill="#002C43"/><path d="m118.230469 439.761719 28.152343-23.761719h-28.105468zm0 0" data-original="#000000" class="active-path" data-old_color="#000000" fill="#002C43"/><path d="m150.789062 272h-32.214843l-.136719 64h32.351562zm0 0" data-original="#000000" class="active-path" data-old_color="#000000" fill="#002C43"/><path d="m118.789062 384h32v16h-32zm0 0" data-original="#000000" class="active-path" data-old_color="#000000" fill="#002C43"/><path d="m219.171875 157.390625c1.53125-1.652344 2.28125-3.878906 2.066406-6.117187l-13.097656-144c-.355469-4.144532-3.839844-7.3125005-8-7.273438h-49.351563v35.519531l12.382813 7.609375c3.539063-2.027344 7.539063-3.105468 11.617187-3.128906 10.628907-.082031 20.066407 6.789062 23.253907 16.929688 3.191406 10.140624-.617188 21.171874-9.378907 27.191406-8.761718 6.015625-20.425781 5.605468-28.746093-1.011719-8.316407-6.617187-11.339844-17.890625-7.449219-27.78125l-17.679688-10.847656v-44.480469h-16v97.472656c11.019532 3.894532 17.632813 15.164063 15.65625 26.6875-1.976562 11.519532-11.96875 19.941406-23.65625 19.941406s-21.675781-8.421874-23.652343-19.941406c-1.976563-11.523437 4.632812-22.792968 15.652343-26.6875v-97.472656h-16v60.480469l-17.679687 10.847656c4.429687 11.046875.253906 23.675781-9.886719 29.90625-10.136718 6.226563-23.292968 4.242187-31.140625-4.703125-7.847656-8.949219-8.109375-22.246094-.613281-31.492188 7.496094-9.242187 20.5625-11.742187 30.9375-5.910156l12.382812-7.609375v-51.519531h-49.382812c-4.160156-.0390625-7.648438 3.132812-8 7.28125l-13.097656 144c-.203125 2.242188.546875 4.472656 2.070312 6.132812 1.523438 1.660157 3.675782 2.605469 5.929688 2.59375h204.960937c2.25.007813 4.398438-.945312 5.902344-2.617187zm0 0" data-original="#000000" class="active-path" data-old_color="#000000" fill="#002C43"/><path d="m54.789062 80c0 4.417969-3.582031 8-8 8-4.417968 0-8-3.582031-8-8s3.582032-8 8-8c4.417969 0 8 3.582031 8 8zm0 0" data-original="#000000" class="active-path" data-old_color="#000000" fill="#002C43"/><path d="m118.789062 120c0 4.417969-3.582031 8-8 8-4.417968 0-8-3.582031-8-8s3.582032-8 8-8c4.417969 0 8 3.582031 8 8zm0 0" data-original="#000000" class="active-path" data-old_color="#000000" fill="#002C43"/><path d="m182.789062 64c0 4.417969-3.582031 8-8 8-4.417968 0-8-3.582031-8-8s3.582032-8 8-8c4.417969 0 8 3.582031 8 8zm0 0" data-original="#000000" class="active-path" data-old_color="#000000" fill="#002C43"/><path d="m118.757812 176h32.03125v16h-32.03125zm0 0" data-original="#000000" class="active-path" data-old_color="#000000" fill="#002C43"/><path d="m118.789062 208h32v16h-32zm0 0" data-original="#000000" class="active-path" data-old_color="#000000" fill="#002C43"/><path d="m102.222656 442.550781.550782-266.550781h-31.984376v251.023438zm0 0" data-original="#000000" class="active-path" data-old_color="#000000" fill="#002C43"/></g> </svg>
